<svg width="40" height="20" viewBox="0 0 40 20" fill="none" xmlns="http://www.w3.org/2000/svg">
<path d="M5.23678 0.457397C5.42428 0.457397 5.59615 0.535522 5.7524 0.691772C5.90865 0.848022 6.02975 1.17615 6.11568 1.67615C6.20943 2.16833 6.34615 2.87537 6.52584 3.79724C6.71334 4.71912 6.92037 5.70349 7.14693 6.75037C7.3735 7.79724 7.61178 8.87927 7.86178 9.99646C8.11178 11.1058 8.36178 12.184 8.61178 13.2308C9.21334 15.684 9.68209 17.4769 10.018 18.6097C10.0962 18.8988 10.0727 19.1293 9.94772 19.3011C9.83053 19.473 9.69772 19.559 9.54928 19.559C9.40084 19.559 9.26412 19.516 9.13912 19.4301C9.02193 19.3441 8.91647 19.0902 8.82272 18.6683C8.72897 18.2465 8.57662 17.5629 8.36568 16.6176C8.15475 15.6722 7.92818 14.6566 7.686 13.5707C7.67818 13.5238 7.67037 13.4808 7.66256 13.4418C7.13131 13.4183 6.38131 13.4066 5.41256 13.4066C4.27193 13.4066 3.40084 13.4222 2.79928 13.4535C2.79147 13.5004 2.78365 13.5472 2.77584 13.5941C2.29928 15.891 1.94772 17.6683 1.72115 18.9261C1.64303 19.3246 1.436 19.5238 1.10006 19.5238C0.748497 19.5238 0.533653 19.3519 0.455528 19.0082C0.432091 18.9066 0.455528 18.7465 0.525841 18.5277C0.596153 18.309 0.697716 17.934 0.830528 17.4027C0.971153 16.8636 1.11959 16.2504 1.27584 15.5629C1.4399 14.8676 1.61178 14.1097 1.79147 13.2894C1.97115 12.4691 2.15475 11.6254 2.34225 10.7582C2.52975 9.89099 2.71725 9.0199 2.90475 8.1449C3.09225 7.26208 3.27193 6.41052 3.44381 5.59021C3.61568 4.7699 3.77584 4.00037 3.92428 3.28162C4.08053 2.56287 4.20553 1.99255 4.29928 1.57068C4.44772 0.828491 4.76022 0.457397 5.23678 0.457397ZM3.02193 12.3636C3.61568 12.3949 4.41647 12.4105 5.42428 12.4105C6.26022 12.4105 6.92818 12.3988 7.42818 12.3754C7.26412 11.6644 7.10006 10.934 6.936 10.184C6.67818 9.0199 6.43209 7.89099 6.19772 6.79724C5.80709 5.00818 5.47115 3.43787 5.1899 2.0863C5.01022 2.98474 4.7524 4.2074 4.41647 5.75427C3.97897 7.81677 3.64693 9.38708 3.42037 10.4652C3.28756 11.1136 3.15475 11.7465 3.02193 12.3636ZM18.3852 5.49646C18.3852 2.86365 17.5922 1.54724 16.0063 1.54724C15.1391 1.54724 14.4946 1.92615 14.0727 2.68396C13.6587 3.44177 13.4829 4.55505 13.5454 6.0238C13.5454 6.35974 13.4047 6.57849 13.1235 6.68005C13.0454 6.70349 12.9438 6.71521 12.8188 6.71521C12.7016 6.71521 12.5766 6.65271 12.4438 6.52771C12.3188 6.3949 12.2524 6.19958 12.2446 5.94177C12.1899 4.1449 12.5649 2.75818 13.3696 1.78162C14.0727 0.914429 15.0063 0.480835 16.1704 0.480835C17.936 0.480835 19.0102 1.41052 19.393 3.2699C19.518 3.87146 19.5805 4.50818 19.5805 5.18005C19.5805 5.84412 19.4907 6.44568 19.311 6.98474C19.1391 7.51599 18.9087 8.04333 18.6196 8.56677C18.3305 9.09021 18.0024 9.60974 17.6352 10.1254C17.268 10.641 16.8891 11.1566 16.4985 11.6722C16.1157 12.1801 15.7407 12.6918 15.3735 13.2074C15.0063 13.723 14.6782 14.2426 14.3891 14.766C13.7485 15.9222 13.4282 16.9965 13.4282 17.9886C13.4282 18.1918 13.4633 18.3129 13.5337 18.3519C13.604 18.391 13.7876 18.4066 14.0844 18.3988C14.3813 18.3832 14.7407 18.3597 15.1626 18.3285C15.5844 18.2972 16.0102 18.266 16.4399 18.2347C17.4555 18.1722 18.1587 18.1566 18.5493 18.1879C19.1665 18.2269 19.4751 18.4457 19.4751 18.8441C19.4751 18.9926 19.4204 19.1293 19.311 19.2543C19.2016 19.3715 19.0415 19.4301 18.8305 19.4301L16.0415 19.3949C14.7446 19.3949 13.8383 19.4183 13.3227 19.4652C12.8071 19.5199 12.4672 19.4926 12.3032 19.3832C12.1469 19.2738 12.0688 19.0785 12.0688 18.7972C12.0688 17.266 12.6157 15.6332 13.7094 13.8988C14.1782 13.1566 14.6821 12.4379 15.2212 11.7426C15.768 11.0394 16.2758 10.3441 16.7446 9.65662C17.8383 8.06287 18.3852 6.67615 18.3852 5.49646ZM24.104 14.2855C24.1665 16.1683 24.2133 17.6176 24.2446 18.6332C24.2524 18.8988 24.186 19.098 24.0454 19.2308C23.9126 19.3558 23.7641 19.4183 23.6001 19.4183C23.4438 19.4183 23.3032 19.3597 23.1782 19.2426C23.0532 19.1176 22.9907 18.9222 22.9907 18.6566V16.0082L22.979 12.3754V9.11755C22.979 6.99255 22.9594 5.64099 22.9204 5.06287C22.8891 4.48474 22.8657 4.04724 22.8501 3.75037C22.8344 3.45349 22.8149 3.15271 22.7915 2.84802C22.768 2.53552 22.7446 2.23083 22.7212 1.93396C22.7055 1.63708 22.7251 1.43396 22.7797 1.32458C22.8422 1.21521 22.9165 1.13708 23.0024 1.09021C23.0883 1.03552 23.1782 1.00037 23.2719 0.984741C23.3657 0.969116 23.5649 0.922241 23.8696 0.844116C24.8305 0.609741 25.6821 0.492554 26.4243 0.492554C27.1665 0.492554 27.7954 0.586304 28.311 0.773804C28.8266 0.961304 29.268 1.24646 29.6352 1.62927C30.4165 2.43396 30.8071 3.5824 30.8071 5.07458C30.8071 7.10583 30.0962 8.96912 28.6743 10.6644C27.5258 12.0316 26.0024 13.2386 24.104 14.2855ZM24.0688 13.1722C27.8422 11.1254 29.729 8.4613 29.729 5.18005C29.729 3.37537 29.104 2.21521 27.854 1.69958C26.9243 1.31677 25.7954 1.35193 24.4672 1.80505C24.311 1.85974 24.1626 1.91443 24.0219 1.96912C23.9672 3.3363 23.9399 4.74255 23.9399 6.18787V9.72693C23.9399 9.87537 23.9438 10.0199 23.9516 10.1605C23.9594 10.3011 23.9633 10.4535 23.9633 10.6176C23.9712 10.7738 23.979 10.9808 23.9868 11.2386C24.0024 11.4886 24.018 11.8051 24.0337 12.1879C24.0415 12.4613 24.0532 12.7894 24.0688 13.1722ZM38.6821 5.49646C38.6821 2.86365 37.8891 1.54724 36.3032 1.54724C35.436 1.54724 34.7915 1.92615 34.3696 2.68396C33.9555 3.44177 33.7797 4.55505 33.8422 6.0238C33.8422 6.35974 33.7016 6.57849 33.4204 6.68005C33.3422 6.70349 33.2407 6.71521 33.1157 6.71521C32.9985 6.71521 32.8735 6.65271 32.7407 6.52771C32.6157 6.3949 32.5493 6.19958 32.5415 5.94177C32.4868 4.1449 32.8618 2.75818 33.6665 1.78162C34.3696 0.914429 35.3032 0.480835 36.4672 0.480835C38.2329 0.480835 39.3071 1.41052 39.6899 3.2699C39.8149 3.87146 39.8774 4.50818 39.8774 5.18005C39.8774 5.84412 39.7876 6.44568 39.6079 6.98474C39.436 7.51599 39.2055 8.04333 38.9165 8.56677C38.6274 9.09021 38.2993 9.60974 37.9321 10.1254C37.5649 10.641 37.186 11.1566 36.7954 11.6722C36.4126 12.1801 36.0376 12.6918 35.6704 13.2074C35.3032 13.723 34.9751 14.2426 34.686 14.766C34.0454 15.9222 33.7251 16.9965 33.7251 17.9886C33.7251 18.1918 33.7602 18.3129 33.8305 18.3519C33.9008 18.391 34.0844 18.4066 34.3813 18.3988C34.6782 18.3832 35.0376 18.3597 35.4594 18.3285C35.8813 18.2972 36.3071 18.266 36.7368 18.2347C37.7524 18.1722 38.4555 18.1566 38.8462 18.1879C39.4633 18.2269 39.7719 18.4457 39.7719 18.8441C39.7719 18.9926 39.7172 19.1293 39.6079 19.2543C39.4985 19.3715 39.3383 19.4301 39.1274 19.4301L36.3383 19.3949C35.0415 19.3949 34.1352 19.4183 33.6196 19.4652C33.104 19.5199 32.7641 19.4926 32.6001 19.3832C32.4438 19.2738 32.3657 19.0785 32.3657 18.7972C32.3657 17.266 32.9126 15.6332 34.0063 13.8988C34.4751 13.1566 34.979 12.4379 35.518 11.7426C36.0649 11.0394 36.5727 10.3441 37.0415 9.65662C38.1352 8.06287 38.6821 6.67615 38.6821 5.49646Z" fill="#42DC91"/>
</svg>
