<svg width="80" height="80" viewBox="0 0 80 80" fill="none" xmlns="http://www.w3.org/2000/svg">
<g id="toys_24px">
<path id="icon/hardware/toys_24px" fill-rule="evenodd" clip-rule="evenodd" d="M40 76.6667H36.6667V54.7667C33.1 58 28.4 60 23.3333 60C12.5 60 3.33334 50.8333 3.33334 40V36.6667H25.2333C22 33.1 20 28.4 20 23.3333C20 12.5 29.1667 3.33334 40 3.33334H43.3333V25.2333C46.9 22 51.6 20 56.6667 20C67.5 20 76.6667 29.1667 76.6667 40V43.3333H54.7667C58 46.9 60 51.6 60 56.6667C60 67.5 50.8333 76.6667 40 76.6667ZM43.3333 69.5667C49 68.0333 53.3333 62.7667 53.3333 56.6667C53.3333 50.5667 49 45.3 43.3333 43.7667V69.5667ZM23.3334 53.3333C17.2334 53.3333 11.9667 49 10.4334 43.3333H36.2334C34.7 49 29.4334 53.3333 23.3334 53.3333ZM69.5667 36.6667C68.0333 31 62.7334 26.6667 56.6667 26.6667C50.6 26.6667 45.3 31 43.7667 36.6667H69.5667ZM26.6667 23.3334C26.6667 17.2667 31 11.9667 36.6667 10.4334V36.2334C31 34.7 26.6667 29.4 26.6667 23.3334Z" fill="#F3BFEE"/>
</g>
</svg>
