<svg width="73" height="73" viewBox="0 0 73 73" fill="none" xmlns="http://www.w3.org/2000/svg">
<g id="opacity_24px">
<path id="icon/action/opacity_24px" fill-rule="evenodd" clip-rule="evenodd" d="M36.5 7.13272L53.7159 24.3181C58.4609 29.0631 60.8334 35.3898 60.8334 41.4731C60.8334 47.5565 58.4609 53.9744 53.7159 58.7194C48.9709 63.4644 42.7354 65.8673 36.5 65.8673C30.2646 65.8673 24.0292 63.4644 19.2842 58.7194C14.5392 53.9744 12.1667 47.5565 12.1667 41.4731C12.1667 35.3898 14.5392 29.0631 19.2842 24.3181L36.5 7.13272ZM23.6033 29.1848C20.1358 32.6219 18.2804 36.4848 18.25 42.5681H54.75C54.7196 36.4848 52.8642 32.7435 49.3967 29.3369L36.5 16.0144L23.6033 29.1848Z" fill="#56CCF2"/>
</g>
</svg>
