<svg width="109" height="107" viewBox="0 0 109 107" fill="none" xmlns="http://www.w3.org/2000/svg">
<path fill-rule="evenodd" clip-rule="evenodd" d="M65.737 24.5464C65.1554 15.6898 61.5047 7.05534 54.6554 0.325577C47.7416 7.11883 43.9293 15.7532 43.1862 24.5464C47.3216 26.705 51.1339 29.4985 54.4616 32.8951C57.7893 29.5302 61.6016 26.7367 65.737 24.5464ZM54.6231 10.452C56.6584 13.7216 58.08 17.3722 58.8231 21.1815C57.3046 22.1338 55.8831 23.1814 54.4938 24.2924C53.1369 23.2131 51.6831 22.1656 50.1969 21.2133C51.0046 17.404 52.4907 13.7534 54.6231 10.452ZM44.5754 32.8634C48.4523 35.5934 51.8123 39.0535 54.4615 43.0215C61.4077 32.6094 73.2646 25.7209 86.7692 25.7209C86.7692 42.6088 75.9138 56.8937 60.8262 62.195C58.7585 62.8934 56.6585 63.433 54.4615 63.8139C52.2646 63.4648 50.1323 62.9251 48.0969 62.195C33.0092 56.8937 22.1538 42.6088 22.1538 25.7209C30.5215 25.7209 38.2431 28.3557 44.5431 32.8316C44.3749 32.7214 44.1945 32.6112 44.0099 32.4985L44.0097 32.4984C43.7689 32.3513 43.5208 32.1997 43.2831 32.038C43.5269 32.2223 43.7815 32.3744 44.0344 32.5256L44.0345 32.5256C44.2173 32.6348 44.3992 32.7435 44.5754 32.8634ZM58.7262 56.1953C57.3046 56.6715 55.8831 57.0524 54.4293 57.3699C53.0077 57.0842 51.6185 56.7032 50.2939 56.2271C39.6646 52.4813 31.8785 43.5611 29.4554 32.8951C33.0093 33.7205 36.4016 35.1489 39.5354 37.1171L39.4708 37.1488L39.4709 37.1489C39.8909 37.4345 40.3108 37.7202 40.7308 37.9424L40.957 38.0694C44.1554 40.355 46.9016 43.1802 49.0662 46.4816L54.4616 54.6081L59.857 46.5134C62.0862 43.1802 64.8646 40.3232 68.0308 38.0694L68.257 37.9107C68.5477 37.752 68.8385 37.5615 69.1293 37.371L69.097 37.3075C72.2631 35.2442 75.7846 33.7205 79.4677 32.8634C77.0446 43.5611 69.2908 52.4813 58.7262 56.1953ZM44.6077 32.8627C44.6423 32.8951 44.6896 32.9353 44.7369 32.9585C44.6723 32.9268 44.64 32.8951 44.6077 32.8633C44.6077 32.8631 44.6077 32.8629 44.6077 32.8627ZM44.5754 32.8316C44.5754 32.8316 44.6073 32.8316 44.6077 32.8627C44.595 32.8509 44.584 32.8401 44.5754 32.8316Z" fill="#42DC91"/>
</svg>
