<svg xmlns="http://www.w3.org/2000/svg" viewBox="0 0 72 66" width="66" height="61">
	<style>
		tspan { white-space:pre }
		.shp0 { fill: #42dc91 } 
	</style>
	<path id="Layer" fill-rule="evenodd" class="shp0" d="M36.46 32.9C33.13 29.5 29.32 26.7 25.19 24.55C25.93 15.75 29.74 7.12 36.66 0.33C43.5 7.06 47.16 15.69 47.74 24.55C43.6 26.74 39.79 29.53 36.46 32.9ZM32.2 21.21C33.68 22.17 35.14 23.21 36.49 24.29C37.88 23.18 39.3 22.13 40.82 21.18C40.08 17.37 38.66 13.72 36.62 10.45C34.49 13.75 33 17.4 32.2 21.21ZM26.58 32.86C30.45 35.59 33.81 39.05 36.46 43.02C43.41 32.61 55.26 25.72 68.77 25.72C68.77 42.61 57.91 56.89 42.83 62.2C40.76 62.89 38.66 63.43 36.46 63.81C34.26 63.46 32.13 62.93 30.1 62.2C15.01 56.89 4.15 42.61 4.15 25.72C12.52 25.72 20.24 28.36 26.54 32.83C26.37 32.72 26.19 32.61 26.01 32.5L26.01 32.5C25.77 32.35 25.52 32.2 25.28 32.04C25.53 32.22 25.78 32.37 26.03 32.53L26.03 32.53C26.22 32.63 26.4 32.74 26.58 32.86ZM61.47 32.86C57.78 33.72 54.26 35.24 51.1 37.31L51.13 37.37C50.84 37.56 50.55 37.75 50.26 37.91L50.03 38.07C46.86 40.32 44.09 43.18 41.86 46.51L36.46 54.61L31.07 46.48C28.9 43.18 26.16 40.35 22.96 38.07L22.73 37.94C22.31 37.72 21.89 37.43 21.47 37.15L21.47 37.15L21.54 37.12C18.4 35.15 15.01 33.72 11.46 32.9C13.88 43.56 21.66 52.48 32.29 56.23C33.62 56.7 35.01 57.08 36.43 57.37C37.88 57.05 39.3 56.67 40.73 56.2C51.29 52.48 59.04 43.56 61.47 32.86ZM26.61 32.86C26.64 32.9 26.69 32.94 26.74 32.96C26.67 32.93 26.64 32.9 26.61 32.86C26.61 32.86 26.61 32.86 26.61 32.86ZM26.58 32.83C26.58 32.83 26.61 32.83 26.61 32.86C26.59 32.85 26.58 32.84 26.58 32.83Z" />
</svg>