<svg width="180" height="180" viewBox="0 0 180 180" fill="none" xmlns="http://www.w3.org/2000/svg">
<path
  fill-rule="evenodd"
  clip-rule="evenodd"
  d="M121.41 68.67C119.79 43.56 109.62 19.08 90.5402 0C71.2802 19.26 60.6602 43.74 58.5902 68.67C70.1102 74.7899 80.7302 82.7099 90.0002 92.3399C99.2702 82.7999 109.89 74.8799 121.41 68.67ZM90.4499 28.71C96.1199 37.98 100.08 48.33 102.15 59.13C97.9199 61.83 93.9599 64.8 90.0899 67.95C86.3099 64.89 82.2599 61.92 78.1199 59.22C80.3699 48.42 84.5099 38.07 90.4499 28.71ZM62.46 92.25C73.26 99.99 82.62 109.8 90 121.05C109.35 91.53 142.38 72 180 72C180 119.88 149.76 160.38 107.73 175.41C101.97 177.39 96.12 178.92 90 180C83.88 179.01 77.94 177.48 72.27 175.41C30.24 160.38 0 119.88 0 72C23.31 72 44.82 79.47 62.37 92.16C61.9013 91.8475 61.3987 91.535 60.8843 91.2152L60.8842 91.2152L60.8841 91.2151C60.2132 90.798 59.5222 90.3684 58.86 89.91C59.5391 90.4324 60.2485 90.8638 60.9531 91.2922L60.9533 91.2924L60.9535 91.2925C61.4626 91.6021 61.9692 91.9102 62.46 92.25ZM101.88 158.4C97.9201 159.75 93.9601 160.83 89.9101 161.73C85.9501 160.92 82.0801 159.84 78.3901 158.49C48.7801 147.87 27.0901 122.58 20.3401 92.3399C30.2401 94.6799 39.6901 98.7299 48.4201 104.31L48.2401 104.4L48.2402 104.4C49.4101 105.21 50.5801 106.02 51.7501 106.65L52.3801 107.01C61.2901 113.49 68.9401 121.5 74.9701 130.86L90.0001 153.9L105.03 130.95C111.24 121.5 118.98 113.4 127.8 107.01L128.43 106.56C129.24 106.11 130.05 105.57 130.86 105.03L130.77 104.85C139.59 98.9999 149.4 94.6799 159.66 92.2499C152.91 122.58 131.31 147.87 101.88 158.4ZM62.55 92.2481C62.6465 92.3398 62.7782 92.4539 62.91 92.5198C62.73 92.4298 62.64 92.3398 62.55 92.2498C62.55 92.2493 62.55 92.2487 62.55 92.2481ZM62.46 92.1598C62.46 92.1598 62.5488 92.1598 62.55 92.2481C62.5147 92.2145 62.4841 92.184 62.46 92.1598Z"
  fill="white"
/>
</svg>
