<svg width="80" height="80" viewBox="0 0 80 80" fill="none" xmlns="http://www.w3.org/2000/svg">
<g id="thermostat_24px">
<path id="icon/device/thermostat_24px" fill-rule="evenodd" clip-rule="evenodd" d="M50 16.6667V43.3333C54.0333 46.3667 56.6666 51.2333 56.6666 56.6667C56.6666 65.8667 49.2 73.3333 40 73.3333C30.8 73.3333 23.3333 65.8667 23.3333 56.6667C23.3333 51.2333 25.9666 46.3667 30 43.3333V16.6667C30 11.1333 34.4666 6.66667 40 6.66667C45.5333 6.66667 50 11.1333 50 16.6667ZM40 13.3333C38.1666 13.3333 36.6666 14.8333 36.6666 16.6667V36.6667H43.3333V30H40V26.6667H43.3333V20H40V16.6667H43.3333C43.3333 14.8333 41.8333 13.3333 40 13.3333Z" fill="#FF9C9C"/>
</g>
</svg>
