<svg width="80" height="80" viewBox="-80 0 512 512.00047" xmlns="http://www.w3.org/2000/svg"><path d="m112 432v-320h-96v320l48 64zm0 0" fill="#ffb655"/><path d="m112 32c0-8.835938-7.164062-16-16-16h-64c-8.835938 0-16 7.164062-16 16v80h96zm0 0" fill="#e6e7e8"/><path d="m320 16h-128c-8.835938 0-16 7.164062-16 16v448c0 8.835938 7.164062 16 16 16h128c8.835938 0 16-7.164062 16-16v-448c0-8.835938-7.164062-16-16-16zm0 0" fill="#ffe477"/><g fill="#3e3d42"><path d="m96 0h-64c-17.671875 0-32 14.328125-32 32v400c0 3.460938 1.125 6.828125 3.199219 9.597656l48 64c5.304687 7.070313 15.332031 8.503906 22.402343 3.203125 1.210938-.910156 2.289063-1.988281 3.199219-3.203125l48-64c2.078125-2.769531 3.199219-6.136718 3.199219-9.597656v-400c0-17.671875-14.328125-32-32-32zm0 32v64h-64v-64zm-32 437.328125-32-42.65625v-298.671875h64v298.671875zm0 0"/><path d="m320 0h-128c-17.671875 0-32 14.328125-32 32v448c0 17.671875 14.328125 32 32 32h128c17.671875 0 32-14.328125 32-32v-448c0-17.671875-14.328125-32-32-32zm-128 480v-448h128v48h-32c-8.835938 0-16 7.164062-16 16s7.164062 16 16 16h32v48h-32c-8.835938 0-16 7.164062-16 16s7.164062 16 16 16h32v48h-48c-8.835938 0-16 7.164062-16 16s7.164062 16 16 16h48v48h-32c-8.835938 0-16 7.164062-16 16s7.164062 16 16 16h32v48h-32c-8.835938 0-16 7.164062-16 16s7.164062 16 16 16h32v48zm0 0"/></g></svg>