<svg width="80" height="80" viewBox="0 0 80 80" fill="none" xmlns="http://www.w3.org/2000/svg">
<g id="bubble_chart_24px">
<path id="icon/editor/bubble_chart_24px" fill-rule="evenodd" clip-rule="evenodd" d="M53.3334 10C43.2334 10 35 18.2333 35 28.3333C35 38.4333 43.2334 46.6667 53.3334 46.6667C63.4334 46.6667 71.6667 38.4333 71.6667 28.3333C71.6667 18.2333 63.4334 10 53.3334 10ZM8.33337 46.6667C8.33337 39.3 14.3 33.3333 21.6667 33.3333C29.0334 33.3333 35 39.3 35 46.6667C35 54.0333 29.0334 60 21.6667 60C14.3 60 8.33337 54.0333 8.33337 46.6667ZM15 46.6667C15 50.3333 18 53.3333 21.6667 53.3333C25.3334 53.3333 28.3334 50.3333 28.3334 46.6667C28.3334 43 25.3334 40 21.6667 40C18 40 15 43 15 46.6667ZM48.3667 50C42.8667 50 38.3667 54.5 38.3667 60C38.3667 65.5 42.8667 70 48.3667 70C53.8667 70 58.3667 65.5 58.3667 60C58.3667 54.5 53.8667 50 48.3667 50ZM45.0334 60C45.0334 61.8333 46.5334 63.3333 48.3667 63.3333C50.2001 63.3333 51.7001 61.8333 51.7001 60C51.7001 58.1667 50.2001 56.6667 48.3667 56.6667C46.5334 56.6667 45.0334 58.1667 45.0334 60ZM41.6667 28.3333C41.6667 34.7667 46.9 40 53.3334 40C59.7667 40 65 34.7667 65 28.3333C65 21.9 59.7667 16.6667 53.3334 16.6667C46.9 16.6667 41.6667 21.9 41.6667 28.3333Z" fill="#9AE7F8"/>
</g>
</svg>
