<svg width="80" height="80" viewBox="0 0 80 80" fill="none" xmlns="http://www.w3.org/2000/svg">
<g id="wb_sunny_24px">
<path id="icon/image/wb_sunny_24px" fill-rule="evenodd" clip-rule="evenodd" d="M36.6667 3.49997H43.3333V13.3333H36.6667V3.49997ZM16.5333 11.8333L22.5333 17.8L17.8 22.5L11.8333 16.5333L16.5333 11.8333ZM13.3333 36.6667H3.33334V43.3333H13.3333V36.6667ZM68.1587 16.5066L63.468 11.8166L57.505 17.7796L62.1953 22.47L68.1587 16.5066ZM57.4667 62.1999L63.4333 68.1999L68.1333 63.4999L62.1333 57.5333L57.4667 62.1999ZM76.6667 36.6667H66.6667V43.3333H76.6667V36.6667ZM40 20C28.9667 20 20 28.9667 20 40C20 51.0333 28.9667 60 40 60C51.0333 60 60 51.0333 60 40C60 28.9667 51.0333 20 40 20ZM26.6667 40C26.6667 47.3667 32.6333 53.3333 40 53.3333C47.3667 53.3333 53.3334 47.3667 53.3334 40C53.3334 32.6333 47.3667 26.6667 40 26.6667C32.6333 26.6667 26.6667 32.6333 26.6667 40ZM43.3333 66.6667V76.5H36.6667V66.6667H43.3333ZM16.5333 68.1666L11.8333 63.4666L17.8 57.4666L22.5 62.1666L16.5333 68.1666Z" fill="#F2C94C"/>
</g>
</svg>
